<svg xmlns="http://www.w3.org/2000/svg" width="41.928" height="32.886" viewBox="0 0 41.928 32.886">
  <g id="campaigning" transform="translate(0 -25.459)">
    <path id="Path_558" data-name="Path 558" d="M1.332,69.21A1.332,1.332,0,0,0,0,70.542v10.4a1.332,1.332,0,1,0,2.664,0v-10.4A1.332,1.332,0,0,0,1.332,69.21Z" transform="translate(0 -35.982)" fill="#fff"/>
    <path id="Path_559" data-name="Path 559" d="M47.582,25.459H42.041a1.332,1.332,0,0,0-1.332,1.332v1.2L22.874,33.283a1.332,1.332,0,0,0-.953,1.277V44.95a1.329,1.329,0,0,0,.016.2c0,.012,0,.025.006.037a1.337,1.337,0,0,0,.039.165l3.776,12.058a1.33,1.33,0,0,0,1.668.873l5.5-1.719A1.332,1.332,0,0,0,33.8,54.9l-1.871-5.979,8.783,2.605v1.2a1.332,1.332,0,0,0,1.332,1.332h5.541a1.332,1.332,0,0,0,1.332-1.332V26.791A1.332,1.332,0,0,0,47.582,25.459ZM30.857,54.42l-2.956.924-2.631-8.4L28.85,48ZM30.3,45.655l-.011,0-5.7-1.69V35.554l16.125-4.781V48.744ZM46.25,51.393H43.373V28.123H46.25Z" transform="translate(-18.028)" fill="#fff"/>
    <path id="Path_560" data-name="Path 560" d="M189.344,133.97l-5.763-2.882a1.332,1.332,0,0,0-1.191,2.383l5.763,2.882a1.332,1.332,0,0,0,1.191-2.383Z" transform="translate(-149.395 -86.756)" fill="#fff"/>
    <path id="Path_561" data-name="Path 561" d="M182.986,55.327a1.324,1.324,0,0,0,.595-.141l5.763-2.882a1.332,1.332,0,0,0-1.191-2.382L182.39,52.8a1.332,1.332,0,0,0,.6,2.523Z" transform="translate(-149.395 -20.003)" fill="#fff"/>
    <path id="Path_562" data-name="Path 562" d="M200.154,98.48h-4.812a1.332,1.332,0,0,0,0,2.664h4.812a1.332,1.332,0,0,0,0-2.664Z" transform="translate(-159.558 -60.054)" fill="#fff"/>
  </g>
</svg>
