<svg id="Group_1527" data-name="Group 1527" xmlns="http://www.w3.org/2000/svg" width="36" height="36" viewBox="0 0 36 36">
  <g id="bxs-user-detail" transform="translate(-4 -5)">
    <path id="Path_567" data-name="Path 567" d="M27.4,20.8H40v3.6H27.4ZM29.2,28H40v3.6H29.2ZM25.6,13.6H40v3.6H25.6ZM7.6,35.2h18V33.4a9.01,9.01,0,0,0-9-9H13a9.01,9.01,0,0,0-9,9v1.8Zm7.2-12.6a6.162,6.162,0,0,0,6.3-6.3A6.162,6.162,0,0,0,14.8,10a6.162,6.162,0,0,0-6.3,6.3A6.162,6.162,0,0,0,14.8,22.6Z" fill="#fff"/>
  </g>
  <rect id="Rectangle_430" data-name="Rectangle 430" width="36" height="36" fill="none"/>
</svg>
