<svg xmlns="http://www.w3.org/2000/svg" width="36" height="36.002" viewBox="0 0 36 36.002">
  <g id="Group_1524" data-name="Group 1524" transform="translate(0 0.002)">
    <g id="clipboard" transform="translate(-42.037 1)">
      <g id="Group_1279" data-name="Group 1279" transform="translate(47.037 0)">
        <g id="Group_1278" data-name="Group 1278" transform="translate(0 0)">
          <path id="Path_509" data-name="Path 509" d="M70.35,4.455H67.274V3.079c0-.445-.486-.648-.931-.648H63.955A3.62,3.62,0,0,0,60.353,0a3.683,3.683,0,0,0-3.6,2.428H54.4c-.445,0-.89.2-.89.648V4.455H50.437a3.44,3.44,0,0,0-3.4,3.278V30.924A3.256,3.256,0,0,0,50.437,34H70.35a3.256,3.256,0,0,0,3.4-3.076V7.733A3.44,3.44,0,0,0,70.35,4.455Zm-15.218-.4h2.226a.891.891,0,0,0,.769-.729A2.347,2.347,0,0,1,60.353,1.5a2.307,2.307,0,0,1,2.186,1.821.89.89,0,0,0,.809.729h2.307V7.288H55.132Zm17,26.874a1.642,1.642,0,0,1-1.781,1.457H50.437a1.642,1.642,0,0,1-1.781-1.457V7.733a1.821,1.821,0,0,1,1.781-1.659h3.076V8.138a.85.85,0,0,0,.89.769h11.94a.89.89,0,0,0,.931-.769V6.074h3.076A1.821,1.821,0,0,1,72.13,7.733V30.924Z" transform="translate(-47.037 0)" fill="#fff" stroke="#fff" stroke-width="2"/>
          <path id="Path_510" data-name="Path 510" d="M105.566,230.564a.809.809,0,0,0-1.133-.04l-2.59,2.469-1.093-1.133a.81.81,0,0,0-1.133-.04.85.85,0,0,0,0,1.174l1.659,1.7a.728.728,0,0,0,.567.243.809.809,0,0,0,.567-.243l3.157-2.995a.769.769,0,0,0,.047-1.086Q105.59,230.586,105.566,230.564Z" transform="translate(-95.326 -212.47)" fill="#fff" stroke="#fff" stroke-width="1"/>
          <path id="Path_511" data-name="Path 511" d="M207.167,256.034h-7.93a.82.82,0,0,0,0,1.619h7.93a.82.82,0,0,0,0-1.619Z" transform="translate(-185.192 -236.2)" fill="#fff" stroke="#fff" stroke-width="1.5"/>
          <path id="Path_512" data-name="Path 512" d="M105.566,146.972a.809.809,0,0,0-1.133-.04l-2.59,2.469-1.093-1.133a.809.809,0,0,0-1.133-.04.85.85,0,0,0,0,1.174l1.659,1.7a.728.728,0,0,0,.567.243.809.809,0,0,0,.567-.243l3.157-2.995a.769.769,0,0,0,.047-1.086Q105.59,146.994,105.566,146.972Z" transform="translate(-95.326 -135.353)" fill="#fff" stroke="#fff" stroke-width="1"/>
          <path id="Path_513" data-name="Path 513" d="M207.167,172.442h-7.93a.82.82,0,0,0,0,1.619h7.93a.82.82,0,0,0,0-1.619Z" transform="translate(-185.192 -159.083)" fill="#fff" stroke="#fff" stroke-width="1.5"/>
          <path id="Path_514" data-name="Path 514" d="M105.566,314.155a.81.81,0,0,0-1.133-.04l-2.59,2.469-1.093-1.133a.809.809,0,0,0-1.133-.04.85.85,0,0,0,0,1.174l1.659,1.7a.728.728,0,0,0,.567.243.809.809,0,0,0,.567-.243l3.157-2.995a.769.769,0,0,0,.047-1.086Q105.59,314.178,105.566,314.155Z" transform="translate(-95.326 -289.585)" fill="#fff" stroke="#fff" stroke-width="1"/>
          <path id="Path_515" data-name="Path 515" d="M207.167,339.626h-7.93a.82.82,0,0,0,0,1.619h7.93a.82.82,0,0,0,0-1.619Z" transform="translate(-185.192 -313.316)" fill="#fff" stroke="#fff" stroke-width="1.5"/>
        </g>
      </g>
    </g>
    <rect id="Rectangle_427" data-name="Rectangle 427" width="36" height="36" fill="none"/>
  </g>
</svg>
