<svg id="Group_1523" data-name="Group 1523" xmlns="http://www.w3.org/2000/svg" width="36" height="36" viewBox="0 0 36 36">
  <path id="Icon_material-work" data-name="Icon material-work" d="M35.4,10.374H28.2V6.687A3.632,3.632,0,0,0,24.6,3H17.4a3.632,3.632,0,0,0-3.6,3.687v3.687H6.6a3.617,3.617,0,0,0-3.582,3.687L3,34.339a3.632,3.632,0,0,0,3.6,3.687H35.4A3.632,3.632,0,0,0,39,34.339V14.061A3.632,3.632,0,0,0,35.4,10.374Zm-10.8,0H17.4V6.687h7.2Z" transform="translate(-3 -2.513)" fill="#fff"/>
  <rect id="Rectangle_426" data-name="Rectangle 426" width="36" height="36" fill="none"/>
</svg>
