<svg xmlns="http://www.w3.org/2000/svg" width="37.232" height="37.197" viewBox="0 0 37.232 37.197">
  <g id="home-page" transform="translate(-0.45 -0.353)">
    <path id="Path_445" data-name="Path 445" d="M36.459,16.148,20.095,1.42a1.636,1.636,0,0,0-2.189,0L1.542,16.148a1.636,1.636,0,1,0,2.19,2.432L19,4.837,34.269,18.583a1.636,1.636,0,1,0,2.19-2.432Z" transform="translate(0 0)" fill="#fff" stroke="#fff" stroke-width="1.1"/>
    <path id="Path_446" data-name="Path 446" d="M30.819,13a1.636,1.636,0,0,0-1.636,1.636v9.448a2.008,2.008,0,0,1-2.006,2.006H8.279a2.008,2.008,0,0,1-2.006-2.006V14.636a1.636,1.636,0,0,0-3.273,0v9.448a5.284,5.284,0,0,0,5.279,5.279h18.9a5.284,5.284,0,0,0,5.279-5.279V14.636A1.636,1.636,0,0,0,30.819,13Z" transform="translate(1.273 7.636)" fill="#fff" stroke="#fff" stroke-width="1.1"/>
  </g>
</svg>
