<svg xmlns="http://www.w3.org/2000/svg" width="38" height="38.026" viewBox="0 0 38 38.026">
  <g id="inventory_1_" data-name="inventory (1)" transform="translate(-1 -0.974)">
    <g id="Group_1290" data-name="Group 1290" transform="translate(0.913 0.913)">
      <path id="Path_517" data-name="Path 517" d="M29.585,15a2.585,2.585,0,1,0,2.585,2.585A2.588,2.588,0,0,0,29.585,15Zm0,4.136a1.551,1.551,0,1,1,1.551-1.551A1.553,1.553,0,0,1,29.585,19.136Z" transform="translate(-10.498 -5.698)" fill="#fff" stroke="#fff" stroke-width="0.5"/>
      <path id="Path_518" data-name="Path 518" d="M31.857,13.136l-.795-.021a4.62,4.62,0,0,0-.18-.43l.557-.557a.516.516,0,0,0,0-.731L29.977,9.934a.517.517,0,0,0-.731,0l-.579.546a4.617,4.617,0,0,0-.43-.175V9.517A.517.517,0,0,0,27.721,9H25.653a.517.517,0,0,0-.517.517l-.022.8a4.46,4.46,0,0,0-.429.179l-.557-.557a.532.532,0,0,0-.731,0L21.935,11.4a.516.516,0,0,0,0,.731l.546.578a4.544,4.544,0,0,0-.176.43h-.788a.517.517,0,0,0-.517.517v2.068a.517.517,0,0,0,.517.517l.795.021a4.619,4.619,0,0,0,.18.43l-.557.557a.516.516,0,0,0,0,.731L23.4,19.44a.517.517,0,0,0,.731,0l.579-.546a4.617,4.617,0,0,0,.43.175v.787a.517.517,0,0,0,.517.517h2.068a.517.517,0,0,0,.517-.517l.022-.8a4.459,4.459,0,0,0,.429-.179l.557.557a.532.532,0,0,0,.731,0l1.462-1.463a.516.516,0,0,0,0-.731l-.546-.578a4.545,4.545,0,0,0,.176-.43h.788a.517.517,0,0,0,.517-.517V13.652A.517.517,0,0,0,31.857,13.136ZM31.34,15.2h-.271a1.04,1.04,0,0,0-.981.708,3.212,3.212,0,0,1-.13.315,1.041,1.041,0,0,0,.194,1.193l.191.191-.731.732-.191-.191a1.053,1.053,0,0,0-1.193-.194,3.334,3.334,0,0,1-.316.131,1.053,1.053,0,0,0-.707.98v.271H26.17v-.271a1.053,1.053,0,0,0-.707-.98c-.108-.039-.214-.083-.316-.131a1.055,1.055,0,0,0-1.194.193l-.191.191-.731-.732.191-.191a1.041,1.041,0,0,0,.193-1.194,3.213,3.213,0,0,1-.13-.316A1.041,1.041,0,0,0,22.3,15.2h-.271V14.17H22.3a1.04,1.04,0,0,0,.981-.708,3.212,3.212,0,0,1,.13-.315,1.041,1.041,0,0,0-.194-1.193l-.191-.191.731-.732.191.191a1.054,1.054,0,0,0,1.193.194,3.334,3.334,0,0,1,.316-.131,1.053,1.053,0,0,0,.707-.98v-.271H27.2V10.3a1.053,1.053,0,0,0,.707.98c.108.039.214.083.316.131a1.053,1.053,0,0,0,1.194-.193l.191-.191.731.732-.191.191a1.041,1.041,0,0,0-.193,1.194,3.213,3.213,0,0,1,.13.316,1.041,1.041,0,0,0,.981.706h.271Z" transform="translate(-7.6 -2.8)" fill="#fff" stroke="#fff" stroke-width="0.5"/>
    </g>
    <path id="Path_519" data-name="Path 519" d="M37.729,13.5,20.329,2.1a.6.6,0,0,0-.658,0L2.271,13.5A.6.6,0,0,0,2,14V37.4a.6.6,0,0,0,.6.6H7.4a.6.6,0,0,0,.6-.6V21.8H32V37.4a.6.6,0,0,0,.6.6h4.8a.6.6,0,0,0,.6-.6V14A.6.6,0,0,0,37.729,13.5ZM33.2,36.8V21.2a.6.6,0,0,0-.6-.6H7.4a.6.6,0,0,0-.6.6V36.8H3.2V17.6h7.2V16.4H3.2V14.325L20,3.317,36.8,14.324V16.4H29.6v1.2h7.2V36.8Z" transform="translate(0)" fill="#fff" stroke="#fff" stroke-width="2"/>
    <path id="Path_520" data-name="Path 520" d="M34.6,40h-12a.6.6,0,0,0-.6.6V46H16.6a.6.6,0,0,0-.6.6v6a.6.6,0,0,0,.6.6h18a.6.6,0,0,0,.6-.6v-12A.6.6,0,0,0,34.6,40ZM22,52H17.2V47.2H19V49h1.2V47.2H22Zm6,0H23.2V47.2H25V49h1.2V47.2H28Zm0-6H23.2V41.2H25V43h1.2V41.2H28Zm6,6H29.2V47.2H31V49h1.2V47.2H34Zm0-6H29.2V41.2H31V43h1.2V41.2H34Z" transform="translate(-5.6 -15.2)" fill="#fff" stroke="#fff" stroke-width="1.2"/>
    <path id="Path_521" data-name="Path 521" d="M44,26h1.2v1.2H44Z" transform="translate(-16.8 -9.6)" fill="#fff" stroke="#fff" stroke-width="2"/>
    <path id="Path_522" data-name="Path 522" d="M18,26h1.2v1.2H18Z" transform="translate(-6.4 -9.6)" fill="#fff" stroke="#fff" stroke-width="2"/>
  </g>
</svg>
