<svg xmlns="http://www.w3.org/2000/svg" width="37" height="35.2" viewBox="0 0 37 35.2">
  <path id="_8675138_ic_fluent_people_regular_icon" data-name="8675138_ic_fluent_people_regular_icon" d="M5.6,22.8l16.2,0a3.6,3.6,0,0,1,3.59,3.331l.01.269v2.7c0,6.3-6.689,8.1-11.7,8.1-4.9,0-11.4-1.721-11.69-7.687L2,29.1V26.4a3.6,3.6,0,0,1,3.331-3.59Zm20.2,0h8.6a3.6,3.6,0,0,1,3.59,3.331L38,26.4v1.8c0,5.512-5.144,7.2-9,7.2a12.889,12.889,0,0,1-3.852-.58,8.089,8.089,0,0,0,1.444-2.389A11.142,11.142,0,0,0,29,32.7l.48-.011c1.774-.078,5.556-.654,5.807-4.12L35.3,28.2V26.4a.9.9,0,0,0-.739-.885L34.4,25.5H27.108a5.323,5.323,0,0,0-1.07-2.412L25.8,22.8h0ZM5.6,25.5l-.181.018a.9.9,0,0,0-.7.7L4.7,26.4v2.7a4.274,4.274,0,0,0,2.551,4.036,13.736,13.736,0,0,0,5.878,1.356l.571.009.571-.009a13.744,13.744,0,0,0,5.878-1.356,4.272,4.272,0,0,0,2.541-3.7l.01-.335V26.4a.9.9,0,0,0-.739-.885L21.8,25.5ZM13.7,3a8.1,8.1,0,1,1-8.1,8.1A8.1,8.1,0,0,1,13.7,3ZM29.9,6.6a6.3,6.3,0,1,1-6.3,6.3A6.3,6.3,0,0,1,29.9,6.6ZM13.7,5.7a5.4,5.4,0,1,0,5.4,5.4A5.407,5.407,0,0,0,13.7,5.7ZM29.9,9.3a3.6,3.6,0,1,0,3.6,3.6A3.6,3.6,0,0,0,29.9,9.3Z" transform="translate(-1.5 -2.5)" fill="#fff" stroke="#fff" stroke-width="1"/>
</svg>
