<svg xmlns="http://www.w3.org/2000/svg" width="37.67" height="36.826" viewBox="0 0 37.67 36.826">
  <g id="package_1_" data-name="package (1)" transform="translate(-0.6 -0.928)">
    <circle id="Ellipse_108" data-name="Ellipse 108" cx="1.229" cy="1.229" r="1.229" transform="translate(29.403 27.866)" fill="#fff" stroke="#fff" stroke-width="0.8"/>
    <path id="Path_448" data-name="Path 448" d="M26.4,33.278a3.527,3.527,0,0,1-1.818-.505l-3.4-2.043A3.551,3.551,0,0,1,19.47,27.7V21.668a4.161,4.161,0,0,1,4.156-4.156h5.551a4.161,4.161,0,0,1,4.156,4.156V27.7a3.548,3.548,0,0,1-1.713,3.027l-3.4,2.043a3.535,3.535,0,0,1-1.816.505ZM23.628,19.971a1.7,1.7,0,0,0-1.7,1.7V27.7a1.077,1.077,0,0,0,.52.919l3.4,2.043a1.067,1.067,0,0,0,1.1,0l3.4-2.043a1.077,1.077,0,0,0,.52-.919V21.67a1.7,1.7,0,0,0-1.7-1.7Z" transform="translate(4.23 3.7)" fill="#fff" stroke="#fff" stroke-width="0.8"/>
    <path id="Path_449" data-name="Path 449" d="M19.435,37.354a6.137,6.137,0,0,1-2.422-.5L4.724,31.59A6.146,6.146,0,0,1,1,25.941V12.765A6.144,6.144,0,0,1,4.724,7.118L17.015,1.849a6.161,6.161,0,0,1,4.841,0l12.291,5.27a6.143,6.143,0,0,1,3.723,5.646v5.821a1.229,1.229,0,1,1-2.458,0V12.765a3.688,3.688,0,0,0-2.234-3.39L20.888,4.108a3.69,3.69,0,0,0-2.9,0L5.694,9.376a3.688,3.688,0,0,0-2.234,3.39V25.944a3.688,3.688,0,0,0,2.234,3.39L17.981,34.6a3.682,3.682,0,0,0,2.905,0l.519-.222a1.229,1.229,0,1,1,.968,2.259l-.517.221a6.125,6.125,0,0,1-2.42.5Z" fill="#fff" stroke="#fff" stroke-width="0.8"/>
    <path id="Path_450" data-name="Path 450" d="M19.295,17.167a6.125,6.125,0,0,1-2.42-.5L1.607,10.127l.967-2.259,15.269,6.546a3.709,3.709,0,0,0,2.905,0l15.27-6.546.967,2.259-15.27,6.546a6.127,6.127,0,0,1-2.421.5Z" transform="translate(0.139 1.492)" fill="#fff" stroke="#fff" stroke-width="0.8"/>
    <path id="Path_451" data-name="Path 451" d="M15,14.436h2.458v18.7H15Z" transform="translate(3.206 2.996)" fill="#fff" stroke="#fff" stroke-width="0.8"/>
    <path id="Path_452" data-name="Path 452" d="M0,0H18.814V2.457H0Z" transform="matrix(0.898, -0.44, 0.44, 0.898, 10.638, 12.849)" fill="#fff" stroke="#fff" stroke-width="0.8"/>
    <path id="Path_453" data-name="Path 453" d="M9.083,20.994a1.229,1.229,0,0,1-1.229-1.229V12.04h2.458v7.725A1.229,1.229,0,0,1,9.083,20.994Z" transform="translate(1.57 2.447)" fill="#fff" stroke="#fff" stroke-width="0.8"/>
  </g>
</svg>
