<svg xmlns="http://www.w3.org/2000/svg" width="36" height="36" viewBox="0 0 36 36">
  <g id="Group_1525" data-name="Group 1525" transform="translate(0)">
    <g id="bx-user-check" transform="translate(-16 -27.691)">
      <g id="Group_1509" data-name="Group 1509" transform="translate(16 31.992)">
        <g id="Group_1508" data-name="Group 1508" transform="translate(0 0)">
          <path id="Path_565" data-name="Path 565" d="M49.406,39.829l-7.836,7.836L39.2,45.309,36.621,47.9l4.932,4.931L52,42.423ZM19.653,39.3a7.142,7.142,0,0,0,7.306,7.306,7.307,7.307,0,1,0,0-14.612A7.142,7.142,0,0,0,19.653,39.3Zm10.959,0a3.489,3.489,0,0,1-3.653,3.653,3.654,3.654,0,1,1,0-7.306A3.489,3.489,0,0,1,30.612,39.3ZM19.653,57.564a5.479,5.479,0,0,1,5.479-5.479h3.653a5.479,5.479,0,0,1,5.479,5.479v1.826h3.653V57.564a9.132,9.132,0,0,0-9.132-9.132H25.132A9.132,9.132,0,0,0,16,57.564v1.826h3.653Z" transform="translate(-16 -31.992)" fill="#fff"/>
        </g>
      </g>
    </g>
    <rect id="Rectangle_428" data-name="Rectangle 428" width="36" height="36" fill="none"/>
  </g>
</svg>
