<svg xmlns="http://www.w3.org/2000/svg" xmlns:xlink="http://www.w3.org/1999/xlink" width="40" height="40" viewBox="0 0 40 40">
  <defs>
    <clipPath id="clip-path">
      <path id="path2346" d="M0-682.665H40v40H0Z" transform="translate(0 682.665)"/>
    </clipPath>
  </defs>
  <g id="g2328" transform="translate(0 682.665)">
    <g id="g2330" transform="translate(11.857 -657.768)">
      <path id="path2332" d="M-163.792,0h-10.195" transform="translate(173.986)" fill="none" stroke="#fff" stroke-linecap="round" stroke-linejoin="round" stroke-width="3.5"/>
    </g>
    <g id="g2334" transform="translate(11.857 -664.055)">
      <path id="path2336" d="M-46.712,0H-49.62" transform="translate(49.62)" fill="none" stroke="#fff" stroke-linecap="round" stroke-linejoin="round" stroke-width="3.5"/>
    </g>
    <g id="g2338" transform="translate(11.857 -651.481)">
      <path id="path2340" d="M-163.792,0h-10.195" transform="translate(173.986)" fill="none" stroke="#fff" stroke-linecap="round" stroke-linejoin="round" stroke-width="3.5"/>
    </g>
    <g id="g2342" transform="translate(0 -682.665)">
      <g id="g2344" clip-path="url(#clip-path)">
        <g id="g2350" transform="translate(20.622 10.093)">
          <path id="path2352" d="M0-61.531a4.688,4.688,0,0,0,4.688,4.688h3.83L0-65.361Z" transform="translate(0 65.361)" fill="none" stroke="#fff" stroke-linecap="round" stroke-linejoin="round" stroke-width="3.5"/>
        </g>
        <g id="g2354" transform="translate(11.534 1.562)">
          <path id="path2356" d="M0-36.417a4.685,4.685,0,0,1,4.015-2.267H19.168A4.688,4.688,0,0,1,23.855-34v19.767" transform="translate(0 38.684)" fill="none" stroke="#fff" stroke-linecap="round" stroke-linejoin="round" stroke-width="3.5"/>
        </g>
        <g id="g2358" transform="translate(4.611 10.093)">
          <path id="path2360" d="M-394.082-255.848v-7.407l-8.517-8.517h-11.323a4.688,4.688,0,0,0-4.687,4.688v18.969a4.688,4.688,0,0,0,4.688,4.687h15.153a4.688,4.688,0,0,0,4.688-4.686" transform="translate(418.61 271.773)" fill="none" stroke="#fff" stroke-linecap="round" stroke-linejoin="round" stroke-width="3.5"/>
        </g>
      </g>
    </g>
  </g>
</svg>
